<svg width="2626" height="147" viewBox="0 0 2626 147" fill="none" xmlns="http://www.w3.org/2000/svg">
<path d="M69.6562 145H39.3828V27.4219H0.613281V2.22656H108.426V27.4219H69.6562V145ZM327.391 145H297.215V83.3789H240.672V145H210.398V2.22656H240.672V58.1836H297.215V2.22656H327.391V145ZM525.75 145H443.523V2.22656H525.75V27.0312H473.797V58.3789H522.137V83.1836H473.797V120H525.75V145ZM828.035 145L793.66 32.9883H792.781C794.018 55.7747 794.637 70.9766 794.637 78.5938V145H767.586V2.22656H808.797L842.586 111.406H843.172L879.012 2.22656H920.223V145H892V77.4219C892 74.2318 892.033 70.5534 892.098 66.3867C892.228 62.2201 892.684 51.1523 893.465 33.1836H892.586L855.77 145H828.035ZM1152.47 2.22656V94.6094C1152.47 105.156 1150.09 114.401 1145.34 122.344C1140.65 130.286 1133.85 136.374 1124.93 140.605C1116.01 144.837 1105.46 146.953 1093.29 146.953C1074.93 146.953 1060.67 142.266 1050.52 132.891C1040.36 123.451 1035.28 110.56 1035.28 94.2188V2.22656H1065.46V89.6289C1065.46 100.632 1067.67 108.704 1072.1 113.848C1076.52 118.991 1083.85 121.562 1094.07 121.562C1103.97 121.562 1111.13 118.991 1115.55 113.848C1120.05 108.639 1122.29 100.501 1122.29 89.4336V2.22656H1152.47ZM1351.71 105.352C1351.71 118.242 1347.05 128.398 1337.74 135.82C1328.5 143.242 1315.61 146.953 1299.07 146.953C1283.84 146.953 1270.36 144.089 1258.64 138.359V110.234C1268.28 114.531 1276.41 117.559 1283.05 119.316C1289.76 121.074 1295.88 121.953 1301.41 121.953C1308.05 121.953 1313.13 120.684 1316.65 118.145C1320.23 115.605 1322.02 111.829 1322.02 106.816C1322.02 104.017 1321.24 101.543 1319.68 99.3945C1318.11 97.181 1315.8 95.0651 1312.74 93.0469C1309.75 91.0286 1303.6 87.806 1294.29 83.3789C1285.56 79.2773 1279.02 75.3385 1274.66 71.5625C1270.29 67.7865 1266.81 63.3919 1264.21 58.3789C1261.6 53.3659 1260.3 47.5065 1260.3 40.8008C1260.3 28.1706 1264.57 18.2422 1273.09 11.0156C1281.69 3.78906 1293.54 0.175781 1308.64 0.175781C1316.06 0.175781 1323.13 1.05469 1329.83 2.8125C1336.6 4.57031 1343.67 7.04427 1351.02 10.2344L1341.26 33.7695C1333.64 30.6445 1327.33 28.4635 1322.31 27.2266C1317.36 25.9896 1312.48 25.3711 1307.66 25.3711C1301.93 25.3711 1297.54 26.7057 1294.48 29.375C1291.42 32.0443 1289.89 35.5273 1289.89 39.8242C1289.89 42.4935 1290.51 44.8372 1291.75 46.8555C1292.98 48.8086 1294.94 50.7292 1297.61 52.6172C1300.34 54.4401 1306.75 57.7604 1316.84 62.5781C1330.19 68.9583 1339.34 75.3711 1344.29 81.8164C1349.23 88.1966 1351.71 96.0417 1351.71 105.352ZM1457.59 145V2.22656H1487.86V145H1457.59ZM1664.44 25.3711C1653.05 25.3711 1644.23 29.668 1637.98 38.2617C1631.73 46.7904 1628.6 58.7044 1628.6 74.0039C1628.6 105.84 1640.55 121.758 1664.44 121.758C1674.47 121.758 1686.61 119.251 1700.87 114.238V139.629C1689.15 144.512 1676.06 146.953 1661.61 146.953C1640.84 146.953 1624.96 140.671 1613.95 128.105C1602.95 115.475 1597.45 97.3763 1597.45 73.8086C1597.45 58.9648 1600.15 45.9766 1605.55 34.8438C1610.96 23.6458 1618.71 15.0846 1628.8 9.16016C1638.95 3.17057 1650.83 0.175781 1664.44 0.175781C1678.31 0.175781 1692.24 3.52865 1706.24 10.2344L1696.47 34.8438C1691.13 32.3047 1685.76 30.0911 1680.36 28.2031C1674.96 26.3151 1669.65 25.3711 1664.44 25.3711ZM1998.37 145H1968.09V27.4219H1929.32V2.22656H2037.14V27.4219H1998.37V145ZM2169.38 65.6055H2179.15C2188.72 65.6055 2195.78 64.0104 2200.34 60.8203C2204.9 57.6302 2207.18 52.6172 2207.18 45.7812C2207.18 39.0104 2204.83 34.1927 2200.14 31.3281C2195.52 28.4635 2188.33 27.0312 2178.56 27.0312H2169.38V65.6055ZM2169.38 90.2148V145H2139.11V2.22656H2180.71C2200.11 2.22656 2214.47 5.77474 2223.78 12.8711C2233.09 19.9023 2237.74 30.612 2237.74 45C2237.74 53.3984 2235.43 60.8854 2230.81 67.4609C2226.19 73.9714 2219.64 79.082 2211.18 82.793C2232.66 114.889 2246.66 135.625 2253.17 145H2219.58L2185.5 90.2148H2169.38ZM2433.37 145H2351.14V2.22656H2433.37V27.0312H2381.41V58.3789H2429.75V83.1836H2381.41V120H2433.37V145ZM2625.48 145H2543.25V2.22656H2625.48V27.0312H2573.52V58.3789H2621.86V83.1836H2573.52V120H2625.48V145Z" fill="black"/>
</svg>
