<svg width="3564" height="1969" viewBox="0 0 3564 1969" fill="none" xmlns="http://www.w3.org/2000/svg">
<path d="M1373.43 410H1315.36V184.436H1240.98V136.1H1447.81V184.436H1373.43V410ZM1714.4 410H1656.51V291.785H1548.04V410H1489.96V136.1H1548.04V243.45H1656.51V136.1H1714.4V410ZM1941.47 410H1783.72V136.1H1941.47V183.686H1841.8V243.824H1934.53V291.41H1841.8V362.039H1941.47V410Z" fill="black"/>
<path d="M289.947 1181L224.001 966.114H222.315C224.688 1009.83 225.874 1038.99 225.874 1053.6V1181H173.98V907.1H253.04L317.861 1116.55H318.985L387.741 907.1H466.801V1181H412.658V1051.36C412.658 1045.24 412.721 1038.18 412.846 1030.19C413.095 1022.19 413.97 1000.96 415.468 966.489H413.782L343.153 1181H289.947ZM758.873 907.1V1084.33C758.873 1104.56 754.315 1122.3 745.197 1137.54C736.205 1152.77 723.153 1164.45 706.042 1172.57C688.931 1180.69 668.698 1184.75 645.342 1184.75C610.121 1184.75 582.768 1175.75 563.284 1157.77C543.8 1139.66 534.058 1114.93 534.058 1083.58V907.1H591.948V1074.77C591.948 1095.88 596.195 1111.37 604.688 1121.24C613.181 1131.1 627.232 1136.04 646.841 1136.04C665.825 1136.04 679.564 1131.1 688.057 1121.24C696.675 1111.24 700.984 1095.63 700.984 1074.4V907.1H758.873ZM987.623 1104.94C987.623 1129.67 978.693 1149.15 960.832 1163.39C943.097 1177.63 918.367 1184.75 886.643 1184.75C857.417 1184.75 831.564 1179.25 809.082 1168.26V1114.3C827.567 1122.55 843.179 1128.36 855.919 1131.73C868.783 1135.1 880.523 1136.79 891.14 1136.79C903.879 1136.79 913.621 1134.35 920.366 1129.48C927.235 1124.61 930.67 1117.36 930.67 1107.75C930.67 1102.38 929.171 1097.63 926.173 1093.51C923.176 1089.26 918.742 1085.2 912.872 1081.33C907.126 1077.46 895.324 1071.28 877.463 1062.78C860.727 1054.92 848.175 1047.36 839.807 1040.12C831.439 1032.87 824.757 1024.44 819.761 1014.82C814.765 1005.21 812.267 993.966 812.267 981.102C812.267 956.872 820.448 937.825 836.809 923.961C853.296 910.098 876.027 903.166 905.003 903.166C919.241 903.166 932.793 904.852 945.657 908.224C958.647 911.597 972.198 916.343 986.311 922.463L967.577 967.613C952.964 961.618 940.849 957.434 931.232 955.061C921.739 952.688 912.372 951.501 903.13 951.501C892.139 951.501 883.708 954.062 877.838 959.183C871.968 964.303 869.033 970.985 869.033 979.229C869.033 984.349 870.219 988.846 872.592 992.717C874.965 996.464 878.712 1000.15 883.833 1003.77C889.079 1007.27 901.381 1013.64 920.74 1022.88C946.344 1035.12 963.892 1047.42 973.384 1059.79C982.877 1072.03 987.623 1087.08 987.623 1104.94ZM1037.27 1181V907.1H1095.35V1181H1037.27ZM1280.63 951.501C1258.77 951.501 1241.85 959.745 1229.86 976.231C1217.87 992.593 1211.88 1015.45 1211.88 1044.8C1211.88 1105.87 1234.79 1136.41 1280.63 1136.41C1299.87 1136.41 1323.16 1131.6 1350.51 1121.99V1170.7C1328.03 1180.06 1302.93 1184.75 1275.2 1184.75C1235.36 1184.75 1204.88 1172.69 1183.77 1148.59C1162.67 1124.36 1152.11 1089.64 1152.11 1044.42C1152.11 1015.95 1157.3 991.031 1167.66 969.674C1178.03 948.192 1192.89 931.768 1212.25 920.402C1231.73 908.911 1254.53 903.166 1280.63 903.166C1307.23 903.166 1333.96 909.598 1360.82 922.463L1342.08 969.674C1331.84 964.803 1321.54 960.556 1311.17 956.934C1300.8 953.312 1290.62 951.501 1280.63 951.501Z" fill="black"/>
<path d="M2082 619.039L2566.06 1339.31" stroke="black" stroke-width="25"/>
<path d="M1195.3 468L924.848 786.284" stroke="black" stroke-width="25"/>
<path d="M2494.32 1767H2436.24V1541.44H2361.87V1493.1H2568.7V1541.44H2494.32V1767ZM2668.93 1614.69H2687.66C2706.02 1614.69 2719.57 1611.63 2728.31 1605.51C2737.06 1599.39 2741.43 1589.77 2741.43 1576.66C2741.43 1563.67 2736.93 1554.42 2727.94 1548.93C2719.07 1543.43 2705.27 1540.69 2686.54 1540.69H2668.93V1614.69ZM2668.93 1661.9V1767H2610.85V1493.1H2690.66C2727.88 1493.1 2755.42 1499.91 2773.28 1513.52C2791.14 1527.01 2800.07 1547.56 2800.07 1575.16C2800.07 1591.27 2795.63 1605.63 2786.77 1618.25C2777.9 1630.74 2765.35 1640.54 2749.11 1647.66C2790.33 1709.24 2817.18 1749.01 2829.67 1767H2765.22L2699.84 1661.9H2668.93ZM3021.89 1767H2864.14V1493.1H3021.89V1540.69H2922.22V1600.82H3014.95V1648.41H2922.22V1719.04H3021.89V1767ZM3236.96 1767H3079.21V1493.1H3236.96V1540.69H3137.29V1600.82H3230.03V1648.41H3137.29V1719.04H3236.96V1767Z" fill="black"/>
</svg>
