<svg width="656" height="535" viewBox="0 0 656 535" fill="none" xmlns="http://www.w3.org/2000/svg">
<line x1="263.078" y1="0.712184" x2="164.293" y2="215.316" stroke="black" stroke-width="3.40641"/>
<line y1="-1.9337" x2="304.52" y2="-1.9337" transform="matrix(0.418144 0.908381 0.908381 -0.418144 295.596 0)" stroke="black" stroke-width="3.86741"/>
<line y1="-1.94165" x2="65.4227" y2="-1.94165" transform="matrix(0.418144 0.908381 0.908381 -0.418144 465.917 378.111)" stroke="black" stroke-width="3.88331"/>
<line x1="119.786" y1="303.779" x2="47.5551" y2="460.694" stroke="black" stroke-width="2.9128"/>
<path d="M124.33 278.01H115.863V245.125H105.02V238.078H135.173V245.125H124.33V278.01ZM174.04 278.01H165.6V260.775H149.786V278.01H141.319V238.078H149.786V253.729H165.6V238.078H174.04V278.01ZM207.143 278.01H184.145V238.078H207.143V245.016H192.612V253.783H206.132V260.721H192.612V271.018H207.143V278.01Z" fill="black"/>
<path d="M365.016 349.545L355.402 318.217H355.157C355.502 324.59 355.675 328.842 355.675 330.972V349.545H348.11V309.613H359.636L369.086 340.149H369.25L379.274 309.613H390.8V349.545H382.906V330.644C382.906 329.752 382.916 328.723 382.934 327.558C382.97 326.392 383.098 323.297 383.316 318.271H383.07L372.773 349.545H365.016ZM433.381 309.613V335.451C433.381 338.401 432.716 340.987 431.387 343.208C430.076 345.43 428.173 347.132 425.678 348.316C423.184 349.499 420.234 350.091 416.829 350.091C411.694 350.091 407.707 348.78 404.866 346.158C402.025 343.518 400.605 339.912 400.605 335.342V309.613H409.045V334.058C409.045 337.136 409.664 339.393 410.902 340.832C412.14 342.27 414.189 342.99 417.048 342.99C419.815 342.99 421.818 342.27 423.056 340.832C424.313 339.375 424.941 337.099 424.941 334.004V309.613H433.381ZM466.73 338.456C466.73 342.061 465.428 344.901 462.824 346.977C460.238 349.053 456.633 350.091 452.008 350.091C447.747 350.091 443.978 349.29 440.7 347.687V339.821C443.395 341.023 445.671 341.87 447.529 342.361C449.404 342.853 451.116 343.099 452.664 343.099C454.521 343.099 455.941 342.744 456.924 342.034C457.926 341.323 458.427 340.267 458.427 338.865C458.427 338.082 458.208 337.39 457.771 336.79C457.334 336.17 456.688 335.579 455.832 335.014C454.994 334.45 453.274 333.548 450.67 332.31C448.23 331.163 446.4 330.061 445.18 329.005C443.96 327.949 442.986 326.72 442.257 325.318C441.529 323.916 441.165 322.277 441.165 320.402C441.165 316.869 442.357 314.093 444.743 312.071C447.146 310.05 450.46 309.04 454.685 309.04C456.76 309.04 458.736 309.285 460.612 309.777C462.505 310.269 464.481 310.961 466.538 311.853L463.807 318.435C461.677 317.561 459.911 316.951 458.509 316.605C457.125 316.259 455.759 316.086 454.412 316.086C452.809 316.086 451.58 316.46 450.724 317.206C449.869 317.953 449.441 318.927 449.441 320.129C449.441 320.875 449.614 321.531 449.96 322.095C450.306 322.641 450.852 323.179 451.598 323.707C452.363 324.217 454.157 325.145 456.979 326.493C460.712 328.277 463.27 330.071 464.654 331.873C466.038 333.658 466.73 335.852 466.73 338.456ZM473.968 349.545V309.613H482.435V349.545H473.968ZM509.447 316.086C506.261 316.086 503.793 317.288 502.045 319.692C500.297 322.077 499.423 325.409 499.423 329.688C499.423 338.592 502.764 343.044 509.447 343.044C512.251 343.044 515.647 342.343 519.635 340.941V348.042C516.357 349.408 512.697 350.091 508.655 350.091C502.846 350.091 498.404 348.334 495.326 344.82C492.249 341.287 490.71 336.225 490.71 329.634C490.71 325.482 491.466 321.849 492.977 318.736C494.489 315.604 496.656 313.209 499.478 311.552C502.318 309.877 505.641 309.04 509.447 309.04C513.325 309.04 517.222 309.977 521.137 311.853L518.406 318.736C516.913 318.026 515.41 317.407 513.899 316.878C512.388 316.35 510.904 316.086 509.447 316.086Z" fill="black"/>
<path d="M472.682 506.24H464.215V473.355H453.372V466.308H483.526V473.355H472.682V506.24ZM498.138 484.034H500.869C503.546 484.034 505.522 483.588 506.796 482.696C508.071 481.804 508.708 480.402 508.708 478.49C508.708 476.596 508.053 475.249 506.742 474.448C505.449 473.646 503.437 473.246 500.705 473.246H498.138V484.034ZM498.138 490.917V506.24H489.671V466.308H501.306C506.733 466.308 510.748 467.301 513.351 469.285C515.955 471.252 517.257 474.247 517.257 478.271C517.257 480.62 516.611 482.714 515.318 484.553C514.025 486.374 512.195 487.804 509.828 488.841C515.837 497.818 519.752 503.618 521.573 506.24H512.177L502.645 490.917H498.138ZM549.596 506.24H526.598V466.308H549.596V473.246H535.065V482.013H548.585V488.951H535.065V499.248H549.596V506.24ZM580.951 506.24H557.953V466.308H580.951V473.246H566.42V482.013H579.94V488.951H566.42V499.248H580.951V506.24Z" fill="black"/>
<ellipse cx="11.3275" cy="516.666" rx="9.8081" ry="7.84648" transform="rotate(13.0613 11.3275 516.666)" fill="black"/>
<ellipse cx="38.0789" cy="522.872" rx="9.8081" ry="7.84648" transform="rotate(13.0613 38.0789 522.872)" fill="black"/>
<rect x="26.2319" y="469.781" width="5.88486" height="49.0405" transform="rotate(13.0613 26.2319 469.781)" fill="black"/>
<rect x="52.9844" y="475.987" width="5.88486" height="49.0405" transform="rotate(13.0613 52.9844 475.987)" fill="black"/>
<rect x="58.7163" y="477.318" width="11.7697" height="33.3475" transform="rotate(103.061 58.7163 477.318)" fill="black"/>
</svg>
