<svg width="3700" height="3653" viewBox="0 0 3700 3653" fill="none" xmlns="http://www.w3.org/2000/svg">
<rect width="3681" height="3653" fill="#FFFDFD"/>
<path d="M3692.86 578.333C3431.92 677.934 3066.61 948.1 3692.86 1231.96V578.333Z" fill="#9CC7A9"/>
<path d="M3029.99 3002.56L3699.18 2566.81V3002.56H3029.99Z" fill="#9CC7A9"/>
<line x1="212.848" y1="3281.5" x2="189.173" y2="3334.67" stroke="black" stroke-width="2.3209"/>
<line x1="236.424" y1="3280.69" x2="260.1" y2="3333.87" stroke="black" stroke-width="2.3209"/>
<line x1="289.918" y1="3396.42" x2="324.075" y2="3443.56" stroke="black" stroke-width="2.3209"/>
<line x1="225.183" y1="3439.54" x2="225.183" y2="3402.75" stroke="black" stroke-width="2.3209"/>
<line y1="-1.16045" x2="58.2078" y2="-1.16045" transform="matrix(-0.586814 0.809722 0.809722 0.586814 162.993 3397.1)" stroke="black" stroke-width="2.3209"/>
<path d="M199.414 3271H196.251V3246.6H187.635V3243.79H208.03V3246.6H199.414V3271ZM232.799 3271H229.636V3258.2H215.307V3271H212.143V3243.79H215.307V3255.37H229.636V3243.79H232.799V3271ZM255.447 3271H240.28V3243.79H255.447V3246.6H243.444V3255.37H254.721V3258.16H243.444V3268.17H255.447V3271Z" fill="black"/>
<path d="M167.976 3380.08L158.746 3355.96H158.597C158.771 3357.88 158.858 3360.15 158.858 3362.78V3380.08H155.936V3352.88H160.7L169.316 3375.32H169.465L178.155 3352.88H182.882V3380.08H179.718V3362.55C179.718 3360.54 179.805 3358.36 179.979 3356H179.83L170.525 3380.08H167.976ZM216.624 3352.88V3370.48C216.624 3373.58 215.687 3376.02 213.814 3377.79C211.941 3379.57 209.367 3380.45 206.091 3380.45C202.816 3380.45 200.279 3379.56 198.48 3377.77C196.694 3375.99 195.8 3373.53 195.8 3370.41V3352.88H198.964V3370.63C198.964 3372.9 199.584 3374.64 200.825 3375.86C202.066 3377.07 203.889 3377.68 206.296 3377.68C208.591 3377.68 210.359 3377.07 211.6 3375.86C212.84 3374.63 213.461 3372.87 213.461 3370.59V3352.88H216.624ZM244.914 3372.84C244.914 3375.24 244.045 3377.1 242.308 3378.44C240.572 3379.78 238.214 3380.45 235.237 3380.45C232.011 3380.45 229.53 3380.04 227.793 3379.21V3376.16C228.91 3376.63 230.126 3377 231.441 3377.27C232.756 3377.54 234.058 3377.68 235.349 3377.68C237.458 3377.68 239.046 3377.28 240.113 3376.49C241.18 3375.68 241.713 3374.57 241.713 3373.14C241.713 3372.2 241.521 3371.43 241.136 3370.83C240.764 3370.23 240.131 3369.67 239.238 3369.16C238.357 3368.65 237.011 3368.07 235.2 3367.43C232.669 3366.52 230.858 3365.45 229.766 3364.21C228.687 3362.97 228.147 3361.35 228.147 3359.35C228.147 3357.25 228.935 3355.59 230.51 3354.35C232.086 3353.1 234.17 3352.48 236.763 3352.48C239.467 3352.48 241.955 3352.98 244.225 3353.97L243.239 3356.73C240.993 3355.78 238.81 3355.31 236.689 3355.31C235.014 3355.31 233.705 3355.67 232.762 3356.39C231.819 3357.11 231.348 3358.11 231.348 3359.39C231.348 3360.33 231.521 3361.11 231.869 3361.71C232.216 3362.31 232.799 3362.86 233.618 3363.37C234.449 3363.87 235.715 3364.42 237.414 3365.03C240.268 3366.04 242.228 3367.14 243.295 3368.3C244.374 3369.47 244.914 3370.98 244.914 3372.84ZM256.195 3380.08V3352.88H259.358V3380.08H256.195ZM284.205 3355.31C281.215 3355.31 278.852 3356.31 277.115 3358.31C275.391 3360.29 274.528 3363.02 274.528 3366.48C274.528 3370.04 275.36 3372.79 277.022 3374.74C278.697 3376.68 281.079 3377.64 284.168 3377.64C286.066 3377.64 288.231 3377.3 290.663 3376.62V3379.39C288.777 3380.1 286.451 3380.45 283.684 3380.45C279.677 3380.45 276.582 3379.24 274.398 3376.81C272.227 3374.38 271.142 3370.92 271.142 3366.44C271.142 3363.64 271.663 3361.18 272.705 3359.07C273.759 3356.96 275.273 3355.34 277.245 3354.2C279.23 3353.06 281.563 3352.48 284.242 3352.48C287.096 3352.48 289.589 3353.01 291.723 3354.05L290.383 3356.76C288.324 3355.8 286.265 3355.31 284.205 3355.31Z" fill="black"/>
<path d="M139.939 3505.84H135.315V3470.19H122.723V3466.08H152.532V3470.19H139.939V3505.84ZM191.017 3489.31V3505.84H186.393V3466.08H197.3C202.177 3466.08 205.776 3467.01 208.097 3468.88C210.436 3470.75 211.606 3473.56 211.606 3477.31C211.606 3482.57 208.94 3486.12 203.61 3487.97L214.407 3505.84H208.94L199.312 3489.31H191.017ZM191.017 3485.34H197.354C200.618 3485.34 203.011 3484.69 204.534 3483.41C206.057 3482.1 206.819 3480.15 206.819 3477.56C206.819 3474.93 206.039 3473.03 204.48 3471.87C202.939 3470.71 200.455 3470.13 197.028 3470.13H191.017V3485.34ZM270.843 3505.84H248.677V3466.08H270.843V3470.19H253.3V3483H269.782V3487.08H253.3V3501.71H270.843V3505.84ZM329.7 3505.84H307.533V3466.08H329.7V3470.19H312.157V3483H328.639V3487.08H312.157V3501.71H329.7V3505.84Z" fill="black"/>
<ellipse cx="209.965" cy="3557.89" rx="7.21568" ry="5.77254" transform="rotate(13.0613 209.965 3557.89)" fill="black"/>
<ellipse cx="229.645" cy="3562.45" rx="7.21568" ry="5.77254" transform="rotate(13.0613 229.645 3562.45)" fill="black"/>
<rect x="220.93" y="3523.4" width="4.32941" height="36.0784" transform="rotate(13.0613 220.93 3523.4)" fill="black"/>
<rect x="240.61" y="3527.96" width="4.32941" height="36.0784" transform="rotate(13.0613 240.61 3527.96)" fill="black"/>
<rect x="244.828" y="3528.94" width="8.65882" height="24.5333" transform="rotate(103.061 244.828 3528.94)" fill="black"/>
<path d="M296.442 796.21C397.451 791.23 435.329 877.135 441.643 920.71C695.309 835.233 749.585 867.036 745.014 893.622C674.897 953.149 469.686 1095.83 209.786 1190.33C-115.09 1308.46 124.56 1158.82 74.0059 996.043C33.5629 865.823 205.446 808.562 296.442 796.21Z" fill="#9CC7A9" stroke="black" stroke-width="0.0986414"/>
<path d="M1390.34 2078.85C1564.77 2054.96 1850.71 1925.52 1971.88 1863.79C2174.72 1832.12 2259.99 1914.21 2277.27 1959.21C2316.88 2026.21 2067.36 2066.88 1937.65 2078.85C1836.24 2041.29 1639.57 1988.7 1664.11 2078.85C1688.66 2168.99 1568.56 2243.83 1505.45 2269.97C1394.4 2216.22 1215.9 2102.73 1390.34 2078.85Z" fill="#9CC7A9"/>
</svg>
